<svg xmlns="http://www.w3.org/2000/svg" viewBox="0 0 92 92"><defs><style>.cls-1{fill:#fff;stroke:#ff8f00;stroke-miterlimit:10;stroke-width:2px;}.cls-2{fill:#ff8f00;}.cls-3{fill:#2c809e;}</style></defs><g id="Layer_2" data-name="Layer 2"><g id="Layer_1-2" data-name="Layer 1"><circle class="cls-1" cx="46" cy="46" r="45"/><path class="cls-2" d="M54.16,64.13a1.83,1.83,0,0,0-1.29.53,1.81,1.81,0,0,0-.53,1.28v2.42a1.83,1.83,0,0,0,.33,1,1.77,1.77,0,0,0,.87.66l3.36,1.21a1.8,1.8,0,0,0,1.29,0l3-1.2a1.85,1.85,0,0,0,.82-.67,1.82,1.82,0,0,0,.31-1V65.94a1.81,1.81,0,0,0-1.81-1.81Zm6.34,4.23-3,1.2-3.35-1.2V65.94H60.5Z"/><path class="cls-3" d="M52.83,46.91h-.25c-1.34-.79-1.78-3.23-1.84-4.14a1.25,1.25,0,0,0,0-.19A18.75,18.75,0,0,0,56,40a4.73,4.73,0,0,0,1.66-2.59c.93-5,2.52-19.78-11.73-20.38h-.27c-2,0-14.79.78-11.29,20.63h0A4.34,4.34,0,0,0,36,40.19a20,20,0,0,0,5.28,2.4.57.57,0,0,0,0,.18c0,.91-.49,3.34-1.84,4.14H39.2a14,14,0,0,0-14,14V75H66.84V61a14,14,0,0,0-14-14ZM51.76,49.2l1,3.83a5.81,5.81,0,0,0-2.07-.35,7.79,7.79,0,0,0-2.14.3,10.61,10.61,0,0,1,3.26-3.78ZM37,38.67a2.73,2.73,0,0,1-.84-1.36c-1.22-6.94-.51-12,2.11-15.17a10,10,0,0,1,7.4-3.33h.19c3.66.15,6.29,1.3,8,3.51,3.47,4.37,2.54,11.76,2,14.73h0A2.94,2.94,0,0,1,55,38.49a17.49,17.49,0,0,1-3,1.67,24,24,0,0,0,2.59-8.44A1.35,1.35,0,0,0,54,30.44c-1.73-1-6-3.64-7.56-7.85-.14-.4-.28-.6-.41-.6s-.26.2-.4.61h0a13.2,13.2,0,0,1-7.5,7.91,1.26,1.26,0,0,0-.71,1.21,25.49,25.49,0,0,0,2.26,8.36h0A18.31,18.31,0,0,1,37,38.67ZM39.25,32a15.23,15.23,0,0,0,6.84-6.11,20.31,20.31,0,0,0,6.66,6c-.88,5.71-2.66,8.41-4,9.67a4.43,4.43,0,0,1-2.56,1.33H46c-5,0-6.42-8.26-6.74-10.85ZM43,43.84a6,6,0,0,0,3,.8h.19a5.37,5.37,0,0,0,2.83-1,8.14,8.14,0,0,0,1.72,4.11,13.3,13.3,0,0,0-4.79,6.59.31.31,0,0,0-.06-.13,13.15,13.15,0,0,0-4.63-6.45A8,8,0,0,0,43,43.84Zm-2.71,5.37A10.7,10.7,0,0,1,43.38,53a6.87,6.87,0,0,0-4.09.08ZM65,73.19H27V61a12.28,12.28,0,0,1,8.57-11.67,9.93,9.93,0,0,0-2.93,4.46,7.32,7.32,0,0,0,0,3.83,3.37,3.37,0,0,0-1.3,1.61,3.41,3.41,0,0,0-.09,2.07l1.67,5.84a.89.89,0,0,0,.46.56.91.91,0,0,0,.72,0l1.44-.52a.9.9,0,0,0-.62-1.7l-.52.18-1.41-4.91a1.65,1.65,0,0,1,.19-1.19,1.67,1.67,0,0,1,1-.75,2,2,0,0,1,1.3,0,2,2,0,0,1,1,.8L38.81,64l-.34.12h0a.91.91,0,1,0,.61,1.71l1.34-.48a.91.91,0,0,0,.49-1.29L38,58.71a3.57,3.57,0,0,0-1.58-1.47,3.67,3.67,0,0,0-2.14-.33,5.57,5.57,0,0,1,.09-2.66,9.6,9.6,0,0,1,4-4.86L37,54.84a.91.91,0,0,0,1.55.84c1.93-2.1,4.87-.91,5.82-.45.3.92.73,2.94.76,3v7.47a.91.91,0,1,0,1.82,0s0-7.44,0-7.47a22.41,22.41,0,0,1,.61-2.93c.74-.39,3.93-1.86,6,.37a.91.91,0,0,0,1.1.18.89.89,0,0,0,.44-1l-1.37-5.48a8.61,8.61,0,0,1,3.58,4.34h0a5.45,5.45,0,0,1,0,3,3,3,0,1,0,1.67.76,7.36,7.36,0,0,0,0-4.26,9.12,9.12,0,0,0-2.51-3.89A12.25,12.25,0,0,1,65,61Zm-7-13.6a1.14,1.14,0,0,1-.7,1,1.13,1.13,0,0,1-1.48-1.48,1.13,1.13,0,0,1,2.18.43Z"/></g></g></svg>