<svg xmlns="http://www.w3.org/2000/svg" viewBox="0 0 92 92"><defs><style>.cls-1{fill:#fff;stroke:#ff8f00;stroke-miterlimit:10;stroke-width:2px;}.cls-2{fill:#2e88a7;}.cls-3{fill:#ff8f00;}</style></defs><g id="Layer_2" data-name="Layer 2"><g id="Layer_1-2" data-name="Layer 1"><circle class="cls-1" cx="46" cy="46" r="45"/><path class="cls-2" d="M65.29,22.34H58V20.28a1.55,1.55,0,1,0-3.1,0v2.06H47.55V20.28a1.55,1.55,0,1,0-3.1,0v2.06H37.1V20.28a1.55,1.55,0,0,0-3.1,0v2.06H26.71a2.55,2.55,0,0,0-2.53,2.53V70.75a2.55,2.55,0,0,0,2.53,2.52H65.29a2.55,2.55,0,0,0,2.53-2.52V24.87A2.55,2.55,0,0,0,65.29,22.34Zm-.57,47.83H27.28V25.44H34v2.07a1.55,1.55,0,0,0,3.1,0V25.44h7.35v2.07a1.55,1.55,0,1,0,3.1,0V25.44H54.9v2.07a1.55,1.55,0,1,0,3.1,0V25.44h6.72Z"/><path class="cls-3" d="M34.52,41.58a1.52,1.52,0,0,0,2.29,0l3.56-3.85a1.54,1.54,0,0,0,0-2.18,1.56,1.56,0,0,0-2.19.06l-2.46,2.64-.75-.81a1.54,1.54,0,0,0-2.18,0,1.49,1.49,0,0,0-.06,2.18Z"/><path class="cls-3" d="M38.08,46.34l-2.41,2.59-.75-.81a1.55,1.55,0,0,0-2.24,2.13l1.84,2.07a1.54,1.54,0,0,0,2.29,0l3.56-3.85a1.54,1.54,0,0,0,0-2.18,1.61,1.61,0,0,0-2.24.05Z"/><path class="cls-3" d="M38.08,57.08l-2.41,2.59-.75-.81A1.55,1.55,0,1,0,32.68,61l1.89,2a1.55,1.55,0,0,0,2.3,0l3.56-3.85A1.54,1.54,0,0,0,40.37,57a1.67,1.67,0,0,0-2.29.11Z"/><path class="cls-3" d="M58.17,47.78H44.68a1.55,1.55,0,1,0,0,3.1H58.23a1.54,1.54,0,0,0,1.55-1.55,1.64,1.64,0,0,0-1.61-1.55Z"/><path class="cls-3" d="M44.68,37a1.55,1.55,0,0,0,0,3.1H58.23a1.55,1.55,0,1,0,0-3.1Z"/><path class="cls-3" d="M58.17,58.52H44.68a1.55,1.55,0,0,0,0,3.1H58.23a1.54,1.54,0,0,0,1.55-1.55,1.6,1.6,0,0,0-1.61-1.55Z"/></g></g></svg>