<svg xmlns="http://www.w3.org/2000/svg" viewBox="0 0 92 92"><defs><style>.cls-1{fill:#fff;stroke:#ff8f00;stroke-miterlimit:10;stroke-width:2px;}.cls-2{fill:#2e88a7;}.cls-3{fill:#ff8f00;}</style></defs><g id="Layer_2" data-name="Layer 2"><g id="Layer_1-2" data-name="Layer 1"><circle class="cls-1" cx="46" cy="46" r="45"/><path class="cls-2" d="M70.87,48.05a6.8,6.8,0,0,0-13.6,0,6.86,6.86,0,0,0,5.16,6.64v3.68a12.13,12.13,0,0,1-24.26,0V51.16A15.44,15.44,0,0,0,51.94,35.84V24.12a4.67,4.67,0,0,0-4.67-4.67h-2A3.1,3.1,0,0,0,43,18.3a2.95,2.95,0,1,0,0,5.9,2.9,2.9,0,0,0,2.54-1.47h1.72a1.37,1.37,0,0,1,1.39,1.39V35.84a12.13,12.13,0,1,1-24.25,0V24.12a1.37,1.37,0,0,1,1.39-1.39H27a2.88,2.88,0,0,0,2.54,1.47,2.95,2.95,0,1,0,0-5.9,2.89,2.89,0,0,0-2.3,1.15H25.8a4.67,4.67,0,0,0-4.67,4.67V35.84A15.37,15.37,0,0,0,34.9,51.16v7.13a15.41,15.41,0,1,0,30.81,0V54.6a6.76,6.76,0,0,0,5.16-6.55Zm-6.8,3.52a3.52,3.52,0,1,1,3.52-3.52A3.49,3.49,0,0,1,64.07,51.57Z"/><circle class="cls-3" cx="64.07" cy="48.05" r="5.01"/></g></g></svg>